<svg width="25" height="25" viewBox="0 0 25 25" fill="none" xmlns="http://www.w3.org/2000/svg">
<path d="M9.60132 10.3086V12.3086H7.60132V10.3086H9.60132ZM13.6013 10.3086V12.3086H11.6013V10.3086H13.6013ZM17.6013 10.3086V12.3086H15.6013V10.3086H17.6013ZM19.6013 3.30859C20.1318 3.30859 20.6405 3.51931 21.0155 3.89438C21.3906 4.26945 21.6013 4.77816 21.6013 5.30859V19.3086C21.6013 19.839 21.3906 20.3477 21.0155 20.7228C20.6405 21.0979 20.1318 21.3086 19.6013 21.3086H5.60132C4.49132 21.3086 3.60132 20.4086 3.60132 19.3086V5.30859C3.60132 4.77816 3.81203 4.26945 4.1871 3.89438C4.56218 3.51931 5.07089 3.30859 5.60132 3.30859H6.60132V1.30859H8.60132V3.30859H16.6013V1.30859H18.6013V3.30859H19.6013ZM19.6013 19.3086V8.30859H5.60132V19.3086H19.6013ZM9.60132 14.3086V16.3086H7.60132V14.3086H9.60132ZM13.6013 14.3086V16.3086H11.6013V14.3086H13.6013ZM17.6013 14.3086V16.3086H15.6013V14.3086H17.6013Z" fill="#03256C"/>
</svg>
