<svg width="24" height="24" viewBox="0 0 24 24" fill="none" xmlns="http://www.w3.org/2000/svg">
<g clip-path="url(#clip0_70_16)">
<path d="M2 21.0694L14.9991 16.4269L6.64253 8.07031L2 21.0694Z" fill="#32325D"/>
<path d="M13.6346 12.2791L18.8249 7.08872C19.2799 6.63375 20.0134 6.63375 20.4684 7.08872L21.0162 7.63653L22.0004 6.65232L21.4526 6.1045C20.4591 5.111 18.8342 5.111 17.8407 6.1045L12.6504 11.2948L13.6346 12.2791Z" fill="#32325D"/>
<path d="M9.48337 7.03486L8.93555 7.58268L9.91976 8.5669L10.4676 8.01908C11.4611 7.02558 11.4611 5.40069 10.4676 4.40719L9.91976 3.85938L8.93555 4.85288L9.48337 5.40069C9.92905 5.84638 9.92905 6.58918 9.48337 7.03486Z" fill="#32325D"/>
<path d="M15.9832 11.6748L14.5068 13.1511L15.4911 14.1354L16.9674 12.659C17.4223 12.2041 18.1559 12.2041 18.6108 12.659L20.1057 14.1539L21.0899 13.1697L19.595 11.6748C18.5923 10.6813 16.9767 10.6813 15.9832 11.6748Z" fill="#32325D"/>
<path d="M14.1263 6.10399L10.793 9.43733L11.7772 10.4215L15.1105 7.08821C16.104 6.09471 16.104 4.46982 15.1105 3.47632L13.6342 2L12.65 2.98422L14.1263 4.46054C14.572 4.91551 14.572 5.65831 14.1263 6.10399Z" fill="#32325D"/>
</g>
<defs>
<clipPath id="clip0_70_16">
<rect width="24" height="24" fill="white"/>
</clipPath>
</defs>
</svg>
