<svg width="25" height="25" viewBox="0 0 25 25" fill="none" xmlns="http://www.w3.org/2000/svg">
<path d="M7.17811 11.5107C8.61811 14.3407 10.9381 16.6607 13.7681 18.1007L15.9681 15.9007C16.2481 15.6207 16.6381 15.5407 16.9881 15.6507C18.1081 16.0207 19.3081 16.2207 20.5581 16.2207C20.8233 16.2207 21.0777 16.3261 21.2652 16.5136C21.4527 16.7011 21.5581 16.9555 21.5581 17.2207V20.7207C21.5581 20.9859 21.4527 21.2403 21.2652 21.4278C21.0777 21.6153 20.8233 21.7207 20.5581 21.7207C16.0494 21.7207 11.7254 19.9296 8.53729 16.7415C5.34917 13.5534 3.55811 9.22938 3.55811 4.7207C3.55811 4.45549 3.66346 4.20113 3.851 4.0136C4.03854 3.82606 4.29289 3.7207 4.55811 3.7207H8.05811C8.32332 3.7207 8.57768 3.82606 8.76521 4.0136C8.95275 4.20113 9.05811 4.45549 9.05811 4.7207C9.05811 5.9707 9.25811 7.1707 9.62811 8.2907C9.73811 8.6407 9.65811 9.0307 9.37811 9.3107L7.17811 11.5107Z" fill="#03256C"/>
</svg>
